# xmcd
#
# Track frame offsets: 
#        150
#        56450
#        86220
#        138520
#        168460
#        199845
#        246075
#
# Disc length: 3637 seconds
#
# Revision: 2
# Processed by: cddbd v1.5.2PL0 Copyright (c) Steve Scherf et al.
# Submitted via: ExactAudioCopy v1.1
#
DISCID=600e3307
DTITLE=????????????????? - ????????????????? ???????????&????
DYEAR=1982
DGENRE=Classical
TTITLE0=??????? ?7? ???? ??97???? ?1??:??????????
TTITLE1=??????? ?7? ???? ??97???? ?2??:?????(????)&???
TTITLE2=??????? ?7? ???? ??97???? ?3??:????????????
TTITLE3=??????? ?7? ???? ??97???? ?4??:??????????
TTITLE4=??????? ?5? ??? ??70-1?????1??:?????????????????????
TTITLE5=??????? ?5? ??? ??70-1?????2??:?????????????????????
TTITLE6=??????? ?5? ??? ??70-1?????3??:????
EXTD=
EXTT0=
EXTT1=
EXTT2=
EXTT3=
EXTT4=
EXTT5=
EXTT6=
PLAYORDER=
